PathFileType	4	(X/Y/Z)	/tmp/tmpj5qvs57t//results/MarkerData/Run_5.trc
DataRate	CameraRate	NumFrames	NumMarkers	Units	OrigDataRate	OrigDataStartFrame	OrigNumFrames
100	100	8	42	m	100	258	516
Frame#	Time	C7			CLAV			LACR			LASI			LCAL			LFAradius			LFAsuperior			LFAulna			LLEL			LMEL			LMT5			LPSI			LTB1			LTB2			LTB3			LTH1			LTH2			LTH3			LTOE			LUA1			LUA2			LUA3			RACR			RASI			RCAL			RFAradius			RFAsuperior			RFAulna			RLEL			RMEL			RMT5			RPSI			RTB1			RTB2			RTB3			RTH1			RTH2			RTH3			RTOE			RUA1			RUA2			RUA3		
		X1	Y1	Z1	X2	Y2	Z2	X3	Y3	Z3	X4	Y4	Z4	X5	Y5	Z5	X6	Y6	Z6	X7	Y7	Z7	X8	Y8	Z8	X9	Y9	Z9	X10	Y10	Z10	X11	Y11	Z11	X12	Y12	Z12	X13	Y13	Z13	X14	Y14	Z14	X15	Y15	Z15	X16	Y16	Z16	X17	Y17	Z17	X18	Y18	Z18	X19	Y19	Z19	X20	Y20	Z20	X21	Y21	Z21	X22	Y22	Z22	X23	Y23	Z23	X24	Y24	Z24	X25	Y25	Z25	X26	Y26	Z26	X27	Y27	Z27	X28	Y28	Z28	X29	Y29	Z29	X30	Y30	Z30	X31	Y31	Z31	X32	Y32	Z32	X33	Y33	Z33	X34	Y34	Z34	X35	Y35	Z35	X36	Y36	Z36	X37	Y37	Z37	X38	Y38	Z38	X39	Y39	Z39	X40	Y40	Z40	X41	Y41	Z41	X42	Y42	Z42

259	2.69	0.63404	1.53496	-0.385374	0.767187	1.46212	-0.323609	0.730114	1.48497	-0.535134	0.712895	0.960352	-0.460717	0.256135	0.140923	-0.336641	0.914628	1.17259	-0.504022	0.860281	1.16419	-0.650146	0.93145	1.11383	-0.535872	0.766308	1.20286	-0.727881	0.714641	1.1504	-0.700843	0.42194	0.0496933	-0.446496	0.53159	1.06862	-0.372217	0.568991	0.385177	-0.399507	0.47647	0.342322	-0.456711	0.445657	0.219653	-0.371355	0.621705	0.868173	-0.515088	0.676642	0.744797	-0.493324	0.578537	0.617637	-0.475927	0.473712	0.0663902	-0.371078	0.721545	1.38401	-0.634087	0.671818	1.28981	-0.638475	0.733278	1.2776	-0.689774	0.671129	1.50328	-0.189039	0.717563	0.995145	-0.212059	0.44891	0.591326	-0.254587	0.585669	0.98876	-0.043789	0.491003	1.17323	-0.00439739	0.520932	0.980716	-0.0182495	0.476578	1.25377	-0.0213725	0.447342	1.23568	-0.0935966	0.458881	0.380291	-0.176199	0.533397	1.06554	-0.287305	0.809744	0.532339	-0.227084	0.698326	0.546605	-0.174294	0.609746	0.500834	-0.239773	0.700749	0.877779	-0.144553	0.835384	0.811581	-0.157465	0.840252	0.696208	-0.15173	0.493552	0.362181	-0.264028	0.58555	1.42397	-0.105554	0.508096	1.3555	-0.144641	0.51797	1.33572	-0.0664284
260	2.7	0.634211	1.54299	-0.384383	0.765897	1.47143	-0.319978	0.733928	1.49492	-0.531567	0.712286	0.972057	-0.460919	0.217716	0.160465	-0.341272	0.922199	1.19758	-0.494249	0.870151	1.17914	-0.640289	0.941487	1.13785	-0.522501	0.776014	1.21009	-0.720768	0.725132	1.15733	-0.691826	0.372645	0.0503857	-0.447094	0.534972	1.07523	-0.374212	0.534566	0.395054	-0.403267	0.439329	0.356253	-0.459757	0.408037	0.231579	-0.37687	0.619641	0.873482	-0.514535	0.664675	0.747571	-0.493078	0.55654	0.627186	-0.476458	0.424078	0.0659019	-0.371807	0.728851	1.39251	-0.630235	0.679818	1.29812	-0.635689	0.742815	1.28544	-0.684158	0.666922	1.51232	-0.187673	0.718082	1.00812	-0.212443	0.466599	0.553455	-0.255442	0.573038	1.0052	-0.0429274	0.478649	1.18638	-0.00715729	0.506918	0.994045	-0.0226217	0.465452	1.26719	-0.0234693	0.436657	1.25065	-0.0965854	0.506059	0.34773	-0.172568	0.53411	1.07328	-0.288915	0.833536	0.541403	-0.228491	0.720909	0.543625	-0.175547	0.638786	0.485001	-0.23841	0.705527	0.89032	-0.144747	0.842386	0.829494	-0.160086	0.850536	0.714258	-0.156184	0.543467	0.333127	-0.259835	0.579202	1.43503	-0.105762	0.501454	1.36925	-0.144874	0.510082	1.34828	-0.0665565
261	2.71	0.634335	1.55136	-0.383313	0.764449	1.48156	-0.316366	0.737344	1.50571	-0.527717	0.713234	0.983161	-0.460689	0.185931	0.182393	-0.34664	0.926933	1.2231	-0.485574	0.877945	1.19498	-0.631061	0.947615	1.16234	-0.509467	0.784551	1.21887	-0.714296	0.733673	1.16625	-0.683548	0.325254	0.0516971	-0.447998	0.538575	1.08206	-0.375705	0.502294	0.407911	-0.407646	0.404718	0.372336	-0.462959	0.375519	0.244799	-0.38462	0.618128	0.879458	-0.514392	0.653522	0.751959	-0.492736	0.535717	0.63929	-0.477218	0.376494	0.0655281	-0.372596	0.735723	1.40225	-0.626077	0.686828	1.30799	-0.633232	0.751347	1.29478	-0.678561	0.662717	1.52173	-0.186523	0.719986	1.02109	-0.212559	0.488918	0.513672	-0.256614	0.562028	1.02134	-0.0430482	0.467504	1.19976	-0.00997138	0.494961	1.00765	-0.0266754	0.455279	1.28068	-0.0256832	0.426759	1.26593	-0.0997043	0.555378	0.316809	-0.169332	0.535958	1.08142	-0.290626	0.855406	0.548444	-0.227641	0.742633	0.539499	-0.176108	0.66895	0.468658	-0.236898	0.710049	0.904395	-0.144298	0.847705	0.845877	-0.162409	0.858126	0.730489	-0.15987	0.59598	0.306427	-0.255743	0.573263	1.44607	-0.106219	0.494785	1.38409	-0.144351	0.502956	1.36076	-0.0666553
262	2.72	0.634497	1.5595	-0.382125	0.762964	1.49166	-0.31271	0.740489	1.51639	-0.523232	0.715233	0.992382	-0.460179	0.161091	0.207159	-0.352678	0.929145	1.24807	-0.47807	0.883873	1.21116	-0.6226	0.950498	1.18636	-0.497192	0.792096	1.22877	-0.70875	0.741018	1.17625	-0.67687	0.279856	0.0547409	-0.448742	0.542214	1.08897	-0.37703	0.473321	0.42256	-0.412296	0.373872	0.390037	-0.466236	0.347911	0.258979	-0.393449	0.616467	0.885835	-0.514969	0.643027	0.75743	-0.492794	0.516624	0.653109	-0.478011	0.332372	0.0661124	-0.374083	0.74221	1.41267	-0.621564	0.692911	1.31912	-0.631092	0.758877	1.30496	-0.673113	0.65878	1.53091	-0.185508	0.722774	1.03338	-0.212751	0.515973	0.473317	-0.257577	0.552188	1.03539	-0.0449673	0.457184	1.21297	-0.0127613	0.484927	1.02098	-0.0298278	0.445816	1.29378	-0.0281928	0.41769	1.28083	-0.102997	0.606108	0.287686	-0.166577	0.538882	1.0895	-0.292495	0.875743	0.553258	-0.225297	0.76391	0.533641	-0.175829	0.700332	0.452032	-0.235042	0.71432	0.919213	-0.143799	0.850777	0.860029	-0.163931	0.863191	0.744417	-0.162446	0.649907	0.282343	-0.25194	0.567722	1.4568	-0.106967	0.488052	1.39901	-0.143779	0.496282	1.37272	-0.0670281
263	2.73	0.634794	1.56707	-0.38078	0.761578	1.50102	-0.309112	0.743323	1.52627	-0.517975	0.717445	0.999422	-0.459764	0.141066	0.234482	-0.358563	0.92924	1.27158	-0.471674	0.888181	1.22708	-0.615023	0.951007	1.20912	-0.486182	0.798868	1.23923	-0.704312	0.747702	1.18651	-0.672207	0.236401	0.0618449	-0.449566	0.54575	1.09602	-0.378765	0.448468	0.437551	-0.416549	0.347772	0.408374	-0.469471	0.323535	0.274175	-0.401463	0.614083	0.89264	-0.516244	0.633032	0.763723	-0.493822	0.499884	0.667401	-0.478674	0.292302	0.0695075	-0.377252	0.748274	1.42328	-0.616918	0.698241	1.33104	-0.62936	0.765569	1.31551	-0.668369	0.655387	1.53941	-0.184507	0.725864	1.04418	-0.213569	0.547269	0.433367	-0.257921	0.543626	1.04774	-0.047544	0.447499	1.22562	-0.0155194	0.476709	1.03366	-0.0317392	0.43693	1.30611	-0.0311167	0.409618	1.29473	-0.106536	0.657916	0.260423	-0.164488	0.542442	1.09732	-0.294654	0.894611	0.556139	-0.222748	0.785109	0.525557	-0.174929	0.732694	0.435191	-0.232831	0.718277	0.933523	-0.144016	0.852323	0.871555	-0.164471	0.865977	0.755675	-0.163938	0.704159	0.26077	-0.248626	0.562707	1.46726	-0.107799	0.481614	1.41327	-0.14356	0.489988	1.38402	-0.0676639
264	2.74	0.635209	1.57385	-0.379275	0.760484	1.50919	-0.305734	0.745713	1.53506	-0.512284	0.719218	1.00499	-0.459771	0.122356	0.263355	-0.36261	0.927557	1.29288	-0.466232	0.891211	1.24228	-0.608557	0.949971	1.23003	-0.476855	0.805045	1.24973	-0.701022	0.753934	1.1965	-0.669493	0.194878	0.0758377	-0.451524	0.548961	1.10322	-0.381114	0.427939	0.451619	-0.419815	0.326481	0.426315	-0.472403	0.300449	0.290693	-0.407206	0.610935	0.899994	-0.517868	0.623877	0.770681	-0.496073	0.486322	0.680766	-0.479314	0.255402	0.0781118	-0.382735	0.753824	1.43373	-0.612518	0.703079	1.34304	-0.628132	0.771625	1.3261	-0.664914	0.652764	1.547	-0.183413	0.728874	1.05263	-0.215441	0.581963	0.394176	-0.257438	0.536683	1.05947	-0.0491296	0.438589	1.23735	-0.0182381	0.470208	1.04538	-0.0324036	0.428654	1.31742	-0.0344002	0.402783	1.3071	-0.110346	0.71079	0.235163	-0.163076	0.546004	1.10486	-0.297139	0.911745	0.557447	-0.221092	0.806343	0.515096	-0.1738	0.765527	0.41818	-0.230587	0.721308	0.945914	-0.145182	0.853777	0.880339	-0.164237	0.866854	0.763912	-0.16471	0.75801	0.241374	-0.245891	0.558386	1.47742	-0.108484	0.476046	1.42651	-0.143811	0.484215	1.39462	-0.0685087
265	2.75	0.635621	1.57974	-0.377649	0.75988	1.51603	-0.30263	0.747581	1.54284	-0.506804	0.720405	1.01007	-0.460288	0.102327	0.293012	-0.363321	0.924371	1.31128	-0.461536	0.893316	1.25641	-0.60348	0.948095	1.24852	-0.469421	0.810617	1.2599	-0.698782	0.759633	1.20594	-0.66835	0.155237	0.0983728	-0.455354	0.551677	1.11041	-0.383551	0.411271	0.464066	-0.422159	0.30901	0.443519	-0.474754	0.277554	0.308757	-0.410405	0.607611	0.907826	-0.519303	0.616489	0.777972	-0.49917	0.476774	0.692059	-0.480338	0.219716	0.0936557	-0.389996	0.758733	1.44369	-0.608642	0.70758	1.35435	-0.627441	0.777099	1.33643	-0.662796	0.650989	1.5536	-0.18215	0.731514	1.05821	-0.218311	0.619229	0.355664	-0.256172	0.531526	1.07074	-0.0491394	0.430841	1.24786	-0.0208498	0.465303	1.05592	-0.0321101	0.421195	1.32751	-0.0378346	0.397378	1.31757	-0.114315	0.76461	0.212037	-0.161996	0.549026	1.11214	-0.299599	0.926672	0.557183	-0.220474	0.827289	0.502482	-0.172623	0.7983	0.401093	-0.228714	0.722596	0.954999	-0.1468	0.855918	0.886327	-0.163582	0.866213	0.768867	-0.165199	0.811147	0.22372	-0.243684	0.554914	1.48698	-0.108931	0.471737	1.43851	-0.144523	0.479171	1.40428	-0.0697189
266	2.76	0.635926	1.5848	-0.375939	0.759806	1.52162	-0.29977	0.748976	1.54982	-0.502099	0.721283	1.01507	-0.461138	0.0808169	0.323722	-0.360758	0.920075	1.32611	-0.457398	0.894678	1.26912	-0.599911	0.945936	1.26389	-0.463863	0.815294	1.26947	-0.697384	0.764437	1.21476	-0.66827	0.117275	0.128639	-0.460219	0.553915	1.11721	-0.38514	0.397667	0.474817	-0.424376	0.294069	0.460479	-0.476398	0.254777	0.328267	-0.411805	0.604997	0.915709	-0.520077	0.611799	0.784988	-0.502167	0.471557	0.700786	-0.482131	0.183586	0.116178	-0.397255	0.762807	1.45289	-0.605362	0.711577	1.36434	-0.627214	0.781792	1.34612	-0.661481	0.649951	1.55926	-0.180673	0.733419	1.06118	-0.221469	0.658494	0.317862	-0.254403	0.528056	1.08074	-0.0480827	0.424668	1.2569	-0.0232023	0.461839	1.06504	-0.031303	0.414895	1.33621	-0.0411457	0.393474	1.32599	-0.118161	0.818848	0.190953	-0.160825	0.551258	1.11898	-0.301286	0.938893	0.55498	-0.220023	0.847314	0.488134	-0.171226	0.830601	0.384086	-0.227255	0.721965	0.95976	-0.148092	0.858209	0.889365	-0.162854	0.864264	0.770488	-0.165741	0.863505	0.207571	-0.241897	0.552413	1.49548	-0.109122	0.468743	1.44899	-0.145689	0.474976	1.41253	-0.0715807
